<svg width="345" height="315" viewBox="0 0 345 315" fill="none" xmlns="http://www.w3.org/2000/svg">
<path d="M232.297 114.628C207.825 114.628 182.916 113.635 159.612 107.146C136.745 100.803 115.756 88.4937 97.042 74.2551C84.7889 64.9859 73.6534 57.5886 57.747 58.7005C42.1868 59.5401 27.3072 65.3546 15.2924 75.2762C-4.93659 92.9921 -1.89601 125.826 6.19898 148.806C18.3613 183.512 55.3759 207.689 86.8368 223.334C123.182 241.493 163.118 252.044 203.145 258.097C238.231 263.446 283.317 267.309 313.723 244.414C341.644 223.334 349.308 175.264 342.467 142.81C340.805 133.223 335.699 124.572 328.109 118.485C308.493 104.128 279.222 113.72 257.177 114.185C248.992 114.361 240.658 114.566 232.297 114.622V114.628Z" fill="#E8E8E8"/>
<path d="M173.59 315C232.87 315 280.923 312.005 280.923 308.306C280.923 304.608 232.87 301.612 173.59 301.612C114.31 301.612 66.2559 304.608 66.2559 308.306C66.2559 312.005 114.31 315 173.59 315Z" fill="#F2F2F2"/>
<path d="M22.1338 50.1574L60.1411 46.9409C64.8835 46.5268 69.6202 47.7521 73.5627 50.4126C77.5053 53.0731 80.4154 57.01 81.8052 61.5595L118.235 183.483L111.099 196.258C109.267 199.549 108.365 203.276 108.484 207.042C108.603 210.809 109.743 214.474 111.78 217.639C113.816 220.81 116.675 223.363 120.056 225.036C123.432 226.71 127.198 227.43 130.954 227.129L276.851 214.735" stroke="#BABABA" stroke-width="5.15" stroke-linecap="round" stroke-linejoin="round"/>
<path d="M87.2508 80.0697L256.831 65.6837C258.499 65.5419 260.184 65.7744 261.75 66.3701C263.321 66.9657 264.733 67.9074 265.885 69.1213C267.037 70.3353 267.904 71.7989 268.415 73.3929C268.926 74.9869 269.073 76.6831 268.846 78.3395L257.353 161.286C257.007 163.776 255.827 166.074 254.012 167.815C252.197 169.557 249.854 170.635 247.352 170.879L118.235 183.478L87.2451 80.064L87.2508 80.0697Z" fill="white" stroke="#BABABA" stroke-width="5.15" stroke-linecap="round" stroke-linejoin="round"/>
<path d="M147.189 255.09C154.796 255.09 160.962 248.924 160.962 241.317C160.962 233.71 154.796 227.543 147.189 227.543C139.582 227.543 133.416 233.71 133.416 241.317C133.416 248.924 139.582 255.09 147.189 255.09Z" fill="white" stroke="#BABABA" stroke-width="5.15" stroke-linecap="round" stroke-linejoin="round"/>
<path d="M243.086 246.961C250.693 246.961 256.86 240.795 256.86 233.188C256.86 225.581 250.693 219.415 243.086 219.415C235.479 219.415 229.313 225.581 229.313 233.188C229.313 240.795 235.479 246.961 243.086 246.961Z" fill="white" stroke="#BABABA" stroke-width="5.15" stroke-linecap="round" stroke-linejoin="round"/>
<path d="M52.2332 43.6508L16.3985 46.6914C13.2956 46.9524 10.9868 49.6866 11.2534 52.7896C11.5143 55.8926 14.2486 58.2014 17.3516 57.9348L53.1862 54.8942C56.2892 54.6332 58.598 51.899 58.3313 48.796C58.0704 45.693 55.3361 43.3842 52.2332 43.6508Z" fill="#D2D2D2"/>
<path d="M158.648 144.132C159.346 138.794 161.847 133.858 165.739 130.143C169.63 126.421 174.673 124.147 180.034 123.693C185.395 123.233 190.756 124.623 195.22 127.63C199.684 130.636 202.986 135.078 204.58 140.217" stroke="#BABABA" stroke-width="5.15" stroke-linecap="round" stroke-linejoin="round"/>
<path d="M204.96 112.58C206.769 112.58 208.233 111.116 208.233 109.307C208.233 107.497 206.769 106.034 204.96 106.034C203.15 106.034 201.687 107.497 201.687 109.307C201.687 111.116 203.15 112.58 204.96 112.58Z" fill="#BABABA"/>
<path d="M153.066 116.971C154.875 116.971 156.339 115.507 156.339 113.697C156.339 111.888 154.875 110.424 153.066 110.424C151.256 110.424 149.792 111.888 149.792 113.697C149.792 115.507 151.256 116.971 153.066 116.971Z" fill="#BABABA"/>
<path d="M60.8159 237.255V249.854" stroke="#BABABA" stroke-width="5.15" stroke-linecap="round" stroke-linejoin="round"/>
<path d="M54.5303 243.541H67.101" stroke="#BABABA" stroke-width="5.15" stroke-linecap="round" stroke-linejoin="round"/>
<path d="M261.71 3V15.5708" stroke="#BABABA" stroke-width="5.15" stroke-linecap="round" stroke-linejoin="round"/>
<path d="M255.424 9.2854H267.995" stroke="#BABABA" stroke-width="5.15" stroke-linecap="round" stroke-linejoin="round"/>
<path d="M112.863 40.5706V53.1413" stroke="#BABABA" stroke-width="5.15" stroke-linecap="round" stroke-linejoin="round"/>
<path d="M106.543 46.8557H119.143" stroke="#BABABA" stroke-width="5.15" stroke-linecap="round" stroke-linejoin="round"/>
<path d="M293.085 86.7975C294.73 86.7975 296.069 85.4644 296.069 83.8137C296.069 82.1629 294.73 80.8298 293.085 80.8298C291.44 80.8298 290.102 82.1629 290.102 83.8137C290.102 85.4644 291.44 86.7975 293.085 86.7975Z" fill="white" stroke="#BABABA" stroke-width="5.15" stroke-linecap="round" stroke-linejoin="round"/>
<path d="M181.628 59.9824C183.211 59.9824 184.493 58.7003 184.493 57.1177C184.493 55.535 183.211 54.2529 181.628 54.2529C180.045 54.2529 178.763 55.535 178.763 57.1177C178.763 58.7003 180.045 59.9824 181.628 59.9824Z" fill="#CFCFCF"/>
<path d="M200.87 267.928C202.452 267.928 203.734 266.646 203.734 265.063C203.734 263.48 202.452 262.198 200.87 262.198C199.287 262.198 198.005 263.48 198.005 265.063C198.005 266.646 199.287 267.928 200.87 267.928Z" fill="#CFCFCF"/>
</svg>
