<svg width="24" height="24" viewBox="0 0 24 24" fill="none" xmlns="http://www.w3.org/2000/svg">
<path d="M12 15.75C11.4035 15.7507 10.8316 15.988 10.4098 16.4098C9.98802 16.8316 9.75074 17.4035 9.75 18V22.75H14.25V18C14.2493 17.4035 14.012 16.8316 13.5902 16.4098C13.1684 15.988 12.5965 15.7507 12 15.75Z" fill="#131874"/>
<path d="M21.3428 8.51366L14.3423 2.91308C13.6786 2.37844 12.852 2.08691 11.9998 2.08691C11.1475 2.08691 10.3209 2.37844 9.65724 2.91308L2.65772 8.51366C2.21753 8.86396 1.86225 9.30927 1.61848 9.81627C1.3747 10.3233 1.24874 10.8788 1.25001 11.4414V19C1.25118 19.9942 1.64664 20.9473 2.34965 21.6504C3.05266 22.3534 4.00581 22.7488 5.00001 22.75H8.25001V18C8.25001 17.0054 8.6451 16.0516 9.34836 15.3483C10.0516 14.6451 11.0054 14.25 12 14.25C12.9946 14.25 13.9484 14.6451 14.6517 15.3483C15.3549 16.0516 15.75 17.0054 15.75 18V22.75H19C19.9942 22.7488 20.9474 22.3534 21.6504 21.6504C22.3534 20.9473 22.7488 19.9942 22.75 19V11.4414C22.7513 10.8789 22.6253 10.3234 22.3817 9.81639C22.138 9.3094 21.7828 8.86406 21.3428 8.51366Z" fill="#131874"/>
</svg>
