<svg width="29" height="29" viewBox="0 0 29 29" fill="none" xmlns="http://www.w3.org/2000/svg">
<path d="M15.1042 0C19.1246 0 22.7387 1.83804 25.019 5.04221C27.2882 8.23016 27.8122 12.2662 26.4206 15.8385C26.0523 16.8044 25.4625 17.7495 24.6701 18.641L15.8993 28.6431C15.7009 28.8695 15.4102 29 15.1042 29C14.7982 29 14.5075 28.8695 14.3091 28.6431L5.5358 18.6385C4.74691 17.7519 4.15643 16.8058 3.78496 15.832C2.39621 12.2662 2.92017 8.23016 5.18936 5.04221C7.46976 1.83804 11.0838 0 15.1042 0ZM23.0872 17.3189C23.7169 16.6102 24.1807 15.8734 24.4647 15.1281C25.616 12.1724 25.1799 8.83532 23.3006 6.19523C21.4157 3.54666 18.4283 2.02773 15.1042 2.02773C11.7801 2.02773 8.79228 3.54672 6.90745 6.19523C5.02852 8.83532 4.59265 12.1724 5.74116 15.1213C6.02802 15.8738 6.49177 16.6105 7.12121 17.3187L15.1042 26.4219L23.0823 17.3244L23.0872 17.3189Z" fill="#F7B700"/>
<path d="M9.06152 12.0832C9.06152 8.75161 11.772 6.0415 15.1032 6.0415C18.4344 6.0415 21.1449 8.75197 21.1449 12.0832C21.1449 15.4147 18.4348 18.1248 15.1032 18.1248C11.7716 18.1248 9.06152 15.4147 9.06152 12.0832ZM11.2199 12.0838C11.2199 14.2254 12.9623 15.9678 15.1038 15.9678C17.2454 15.9678 18.9878 14.2254 18.9878 12.0838C18.9878 9.94224 17.2454 8.19987 15.1038 8.19987C12.9623 8.19987 11.2199 9.94224 11.2199 12.0838Z" fill="#F7B700"/>
</svg>
