<svg width="50" height="50" viewBox="0 0 50 50" fill="none" xmlns="http://www.w3.org/2000/svg">
<rect width="50" height="50" rx="25" fill="#FF9500"/>
<path d="M33.1 19.94C33.1 20.48 32.81 20.97 32.35 21.22L30.61 22.16L29.13 22.95L26.06 24.61C25.73 24.79 25.37 24.88 25 24.88C24.63 24.88 24.27 24.79 23.94 24.61L17.65 21.22C17.19 20.97 16.9 20.48 16.9 19.94C16.9 19.4 17.19 18.91 17.65 18.66L19.62 17.6L21.19 16.75L23.94 15.27C24.6 14.91 25.4 14.91 26.06 15.27L32.35 18.66C32.81 18.91 33.1 19.4 33.1 19.94Z" fill="white"/>
<path d="M22.9 25.79L17.05 22.87C16.6 22.64 16.08 22.67 15.65 22.93C15.22 23.19 14.97 23.65 14.97 24.15V29.68C14.97 30.64 15.5 31.5 16.36 31.93L22.21 34.85C22.41 34.95 22.63 35 22.85 35C23.11 35 23.37 34.93 23.6 34.78C24.03 34.52 24.28 34.06 24.28 33.56V28.03C24.29 27.08 23.76 26.22 22.9 25.79Z" fill="white"/>
<path d="M35.03 24.15V29.68C35.03 30.63 34.5 31.49 33.64 31.92L27.79 34.85C27.59 34.95 27.37 35 27.15 35C26.89 35 26.63 34.93 26.39 34.78C25.97 34.52 25.71 34.06 25.71 33.56V28.04C25.71 27.08 26.24 26.22 27.1 25.79L29.25 24.72L30.75 23.97L32.95 22.87C33.4 22.64 33.92 22.66 34.35 22.93C34.77 23.19 35.03 23.65 35.03 24.15Z" fill="white"/>
<path d="M30.61 22.16L29.13 22.95L19.62 17.6L21.19 16.75L30.37 21.93C30.47 21.99 30.55 22.07 30.61 22.16Z" fill="white"/>
<path d="M30.75 23.97V26.24C30.75 26.65 30.41 26.99 30 26.99C29.59 26.99 29.25 26.65 29.25 26.24V24.72L30.75 23.97Z" fill="white"/>
</svg>
