<svg width="24" height="24" viewBox="0 0 24 24" fill="none" xmlns="http://www.w3.org/2000/svg">
<path d="M22 14.556V13C22 10.794 20.206 9.00002 18 9.00002C15.794 9.00002 14 10.794 14 13V14.556C12.81 15.25 12 16.526 12 18V20C12 22.206 13.794 24 16 24H20C22.206 24 24 22.206 24 20V18C24 16.526 23.19 15.25 22 14.556ZM18 20.5C17.172 20.5 16.5 19.828 16.5 19C16.5 18.172 17.172 17.5 18 17.5C18.828 17.5 19.5 18.172 19.5 19C19.5 19.828 18.828 20.5 18 20.5ZM16 14V13C16 11.897 16.897 11 18 11C19.103 11 20 11.897 20 13V14H16ZM19 2.00002H5C2.239 2.00002 0 4.23902 0 7.00002V10C0 12.761 2.239 15 5 15H10.812C11.13 14.452 11.532 13.961 12 13.54V13C12 12.228 12.152 11.492 12.419 10.813C12.356 10.825 12.295 10.849 12.231 10.849C11.975 10.849 11.719 10.751 11.524 10.556L10.881 9.91302L10.238 10.556C10.043 10.751 9.787 10.849 9.531 10.849C9.275 10.849 9.019 10.751 8.824 10.556C8.433 10.165 8.433 9.53302 8.824 9.14202L9.467 8.49902L8.824 7.85602C8.433 7.46502 8.433 6.83302 8.824 6.44202C9.214 6.05102 9.847 6.05102 10.238 6.44202L10.881 7.08502L11.524 6.44202C11.915 6.05102 12.547 6.05102 12.938 6.44202C13.329 6.83302 13.328 7.46502 12.938 7.85602L12.295 8.49902L12.938 9.14202C13.035 9.23902 13.108 9.35202 13.157 9.47202C14.249 7.97702 16.01 6.99902 18 6.99902C20.754 6.99902 23.074 8.86602 23.777 11.399C23.908 10.952 24 10.489 24 9.99902V6.99902C24 4.23802 21.761 1.99902 19 1.99902V2.00002ZM6.707 9.14302C7.098 9.53402 7.098 10.166 6.707 10.557C6.512 10.752 6.256 10.85 6 10.85C5.744 10.85 5.488 10.752 5.293 10.557L4.65 9.91402L4.007 10.557C3.812 10.752 3.556 10.85 3.3 10.85C3.044 10.85 2.788 10.752 2.593 10.557C2.202 10.166 2.202 9.53402 2.593 9.14302L3.236 8.50002L2.593 7.85702C2.202 7.46602 2.202 6.83402 2.593 6.44302C2.983 6.05202 3.616 6.05202 4.007 6.44302L4.65 7.08602L5.293 6.44302C5.684 6.05202 6.316 6.05202 6.707 6.44302C7.098 6.83402 7.098 7.46602 6.707 7.85702L6.064 8.50002L6.707 9.14302Z" fill="#131874"/>
</svg>
