<svg width="89" height="89" viewBox="0 0 89 89" fill="none" xmlns="http://www.w3.org/2000/svg">
<path d="M78.1277 2.6377H33.0183C28.6583 2.6377 25.1053 6.19074 25.1053 10.5608V25.4474H10.8722C6.51228 25.4474 2.95923 29.0008 2.95923 33.3705V74.2733C2.95923 80.9407 8.38093 86.3624 15.0483 86.3624H73.9416C80.5373 86.3624 86.0407 81.0429 86.0407 74.2632V10.5608C86.0407 6.19074 82.4877 2.6377 78.1277 2.6377ZM83.9986 74.2632C83.9986 79.9707 79.3529 84.3206 73.9416 84.3206H21.7768C25.034 82.1355 27.0761 78.4904 27.1373 74.4572C27.1474 73.5279 27.1474 10.9794 27.1474 10.5608C27.1474 7.31402 29.7816 4.67948 33.0183 4.67948H78.1277C81.3644 4.67948 83.9986 7.31367 83.9986 10.5608V74.2632Z" fill="#293798"/>
<path d="M76.5833 72.79H51.2847C50.7205 72.79 50.2637 73.2469 50.2637 73.8111C50.2637 74.3754 50.7205 74.8322 51.2847 74.8322H76.5833C77.1476 74.8322 77.6044 74.3754 77.6044 73.8111C77.6044 73.2469 77.1479 72.79 76.5833 72.79Z" fill="#293798"/>
<path d="M46.2017 72.79H37.5628C36.9986 72.79 36.5417 73.2469 36.5417 73.8111C36.5417 74.3754 36.9986 74.8322 37.5628 74.8322H46.2017C46.766 74.8322 47.2228 74.3754 47.2228 73.8111C47.2228 73.2469 46.7663 72.79 46.2017 72.79Z" fill="#293798"/>
<path d="M76.5833 63.8252H69.2686C68.7044 63.8252 68.2476 64.282 68.2476 64.8463C68.2476 65.4105 68.7044 65.8673 69.2686 65.8673H76.5833C77.1476 65.8673 77.6044 65.4105 77.6044 64.8463C77.6044 64.282 77.1479 63.8252 76.5833 63.8252Z" fill="#293798"/>
<path d="M37.5628 65.8673H62.8193C63.3836 65.8673 63.8404 65.4105 63.8404 64.8463C63.8404 64.282 63.3836 63.8252 62.8193 63.8252H37.5628C36.9986 63.8252 36.5417 64.282 36.5417 64.8463C36.5417 65.4105 36.9986 65.8673 37.5628 65.8673Z" fill="#293798"/>
<path d="M76.5835 54.8604H49.6158C49.0515 54.8604 48.5947 55.3172 48.5947 55.8814C48.5947 56.4457 49.0515 56.9025 49.6158 56.9025H76.5835C77.1477 56.9025 77.6046 56.4457 77.6046 55.8814C77.6046 55.3172 77.1481 54.8604 76.5835 54.8604Z" fill="#293798"/>
<path d="M37.5628 56.9025H44.6074C45.1716 56.9025 45.6284 56.4457 45.6284 55.8814C45.6284 55.3172 45.1716 54.8604 44.6074 54.8604H37.5628C36.9986 54.8604 36.5417 55.3172 36.5417 55.8814C36.5417 56.446 36.9986 56.9025 37.5628 56.9025Z" fill="#293798"/>
<path d="M68.7851 14.1753H43.9534C43.3815 14.1753 42.9324 14.6349 42.9324 15.1964V25.0698C42.9324 39.6095 54.3577 45.7355 55.5933 47.1651C56.0018 47.6348 56.7267 47.6348 57.1352 47.1651C58.4218 45.6844 69.8062 39.5584 69.8062 25.0698V15.1964C69.8062 14.6345 69.3469 14.1753 68.7851 14.1753ZM61.6992 27.1832L54.3275 32.2169C53.8783 32.5232 53.2758 32.421 52.939 31.9923L50.7946 29.1641C50.4477 28.715 50.5394 28.0819 50.9886 27.7346C51.4378 27.3977 52.0709 27.4794 52.4182 27.9286L53.9802 29.9808L60.5453 25.4985C61.015 25.1717 61.6481 25.2944 61.9645 25.7637C62.2812 26.2233 62.1689 26.8564 61.6992 27.1832Z" fill="#293798"/>
</svg>
