<svg width="66" height="66" viewBox="0 0 66 66" fill="none" xmlns="http://www.w3.org/2000/svg">
<rect width="66" height="66" rx="13" fill="#293798"/>
<path d="M50.449 15.5822C47.0212 12.0624 41.4826 10.3521 33.0206 10.1992C33.0072 10.1992 32.9937 10.1992 32.9803 10.1992C24.5183 10.3512 18.9797 12.0615 15.5519 15.5822C12.025 19.0037 10.3111 24.5324 10.1582 32.9802V33.0205C10.3111 41.4673 12.025 46.9961 15.5519 50.4176C18.9797 53.9374 24.5183 55.6477 32.9803 55.8006H33C33 55.8006 33.0134 55.8006 33.0197 55.8006C41.4817 55.6486 47.0203 53.9383 50.4481 50.4176C53.975 46.9961 55.6898 41.4673 55.8418 33.0205C55.8418 33.007 55.8418 32.9936 55.8418 32.9802C55.6907 24.5333 53.9768 19.0037 50.449 15.5822ZM48.8826 48.8235C48.8746 48.8315 48.8665 48.8396 48.8576 48.8476C45.8715 51.9222 40.8318 53.4215 33 53.5646C25.1682 53.4215 20.1294 51.9222 17.1424 48.8476C17.1344 48.8396 17.1263 48.8315 17.1183 48.8235C14.0392 45.8436 12.5372 40.8147 12.3933 32.9999C12.5372 25.1851 14.0383 20.1561 17.1192 17.1763C17.1272 17.1683 17.1362 17.1602 17.1433 17.1522C20.1303 14.0776 25.1691 12.5783 33.0009 12.4343C40.8327 12.5774 45.8715 14.0767 48.8585 17.1513C48.8665 17.1593 48.8745 17.1674 48.8835 17.1754C51.9635 20.1552 53.4654 25.1842 53.6094 32.999C53.4645 40.8147 51.9626 45.8436 48.8826 48.8235Z" fill="white"/>
<path d="M32.8925 33.5824C37.3046 33.5824 40.8942 29.9991 40.8942 25.5942C40.8942 21.1893 37.3046 17.606 32.8925 17.606C28.4804 17.606 24.8909 21.1893 24.8909 25.5942C24.8909 29.9991 28.4804 33.5824 32.8925 33.5824ZM32.8925 19.8411C36.0726 19.8411 38.6591 22.4221 38.6591 25.5942C38.6591 28.7662 36.0726 31.3473 32.8925 31.3473C29.7124 31.3473 27.126 28.7662 27.126 25.5942C27.126 22.4221 29.7124 19.8411 32.8925 19.8411Z" fill="white"/>
<path d="M45.8043 41.5907C45.638 38.3373 43.1696 35.4648 39.2009 33.9065C38.5125 33.6365 37.7285 33.6722 37.049 34.0066C35.75 34.6468 34.3517 34.9713 32.8926 34.9713C31.4613 34.9713 30.0889 34.6593 28.8113 34.0433C28.1283 33.7143 27.3424 33.6848 26.6567 33.9619C22.7766 35.531 20.3627 38.3803 20.199 41.5836C20.1982 41.6015 20.1973 41.6194 20.1973 41.6381L20.1919 43.6613C20.1919 46.271 22.3188 48.3944 24.9321 48.3944H41.0686C43.6828 48.3944 45.8088 46.271 45.8088 43.6587L45.8043 41.6453C45.8052 41.6274 45.8052 41.6086 45.8043 41.5907ZM41.0695 46.1593H24.9321C23.5508 46.1593 22.427 45.0382 22.427 43.664L22.4324 41.673C22.5638 39.3709 24.4538 37.2645 27.4944 36.0352C27.5981 35.9932 27.7242 36.0012 27.8413 36.0575C29.4237 36.8202 31.1233 37.2073 32.8926 37.2073C34.6968 37.2073 36.4276 36.805 38.0369 36.0128C38.1531 35.9556 38.2792 35.9467 38.3838 35.9878C41.4539 37.193 43.4387 39.3726 43.5701 41.6802L43.5746 43.6622C43.5746 45.0391 42.4508 46.1593 41.0695 46.1593Z" fill="white"/>
</svg>
